<svg width="140" height="61" viewBox="0 0 140 61" fill="none" xmlns="http://www.w3.org/2000/svg">
<path d="M62.46 7.26649C58.0258 3.49518 52.6049 1.07159 46.8376 0.281931C41.0702 -0.507725 35.1974 0.369544 29.9126 2.81013C24.6278 5.25072 20.1518 9.15268 17.0132 14.0552C13.8746 18.9577 12.2045 24.656 12.2001 30.4772C12.1958 36.2983 13.8573 41.9991 16.9886 46.9063C20.1199 51.8135 24.59 55.7222 29.8711 58.1707C35.1523 60.6192 41.0238 61.5052 46.7923 60.7242C52.5608 59.9432 57.9853 57.5277 62.4252 53.7631L55.8516 46.0104C52.8914 48.5204 49.2746 50.1309 45.4285 50.6516C41.5825 51.1724 37.6677 50.5816 34.1466 48.9491C30.6254 47.3166 27.645 44.7105 25.5573 41.4387C23.4695 38.1669 22.3617 34.3659 22.3646 30.4848C22.3675 26.6036 23.481 22.8043 25.5737 19.5356C27.6663 16.2669 30.6506 13.6653 34.1742 12.0381C37.6978 10.4109 41.6134 9.82597 45.4587 10.3525C49.304 10.879 52.9183 12.4949 55.8748 15.0093L62.46 7.26649Z" fill="white"/>
<circle cx="38.9363" cy="30.6297" r="6.48936" fill="white"/>
<rect x="0.259583" y="28.0339" width="39.4553" height="4.93191" fill="white"/>
<rect x="0.259583" y="12.7192" width="4.41277" height="20.2468" fill="white"/>
<circle cx="2.4659" cy="7.65736" r="2.46596" fill="white"/>
<path d="M67.4977 41.0929C66.2555 41.0929 65.2056 40.8933 64.3479 40.494C63.505 40.0947 62.8543 39.5254 62.3959 38.786C61.9523 38.0318 61.7009 37.1372 61.6417 36.102C61.6269 35.8062 61.6195 35.4735 61.6195 35.1038C61.6195 34.7193 61.6269 34.3866 61.6417 34.1056C61.7009 33.0557 61.9671 32.161 62.4403 31.4216C62.9135 30.6822 63.5715 30.1129 64.4145 29.7136C65.2721 29.3144 66.2999 29.1147 67.4977 29.1147C68.7103 29.1147 69.7381 29.3144 70.581 29.7136C71.4387 30.1129 72.1041 30.6822 72.5774 31.4216C73.0506 32.161 73.3168 33.0557 73.3759 34.1056C73.3907 34.3866 73.3981 34.7193 73.3981 35.1038C73.3981 35.4735 73.3907 35.8062 73.3759 36.102C73.3168 37.1372 73.058 38.0318 72.5995 38.786C72.1559 39.5254 71.5052 40.0947 70.6475 40.494C69.8046 40.8933 68.7547 41.0929 67.4977 41.0929ZM67.4977 38.3867C68.1632 38.3867 68.6438 38.1871 68.9395 37.7878C69.2501 37.3885 69.4275 36.7896 69.4719 35.9911C69.4867 35.7693 69.4941 35.4735 69.4941 35.1038C69.4941 34.7341 69.4867 34.4384 69.4719 34.2165C69.4275 33.4328 69.2501 32.8413 68.9395 32.442C68.6438 32.0279 68.1632 31.8209 67.4977 31.8209C66.8471 31.8209 66.3665 32.0279 66.0559 32.442C65.7454 32.8413 65.5753 33.4328 65.5457 34.2165C65.5309 34.4384 65.5235 34.7341 65.5235 35.1038C65.5235 35.4735 65.5309 35.7693 65.5457 35.9911C65.5753 36.7896 65.7454 37.3885 66.0559 37.7878C66.3665 38.1871 66.8471 38.3867 67.4977 38.3867ZM76.1342 40.8711C75.9716 40.8711 75.8385 40.8193 75.735 40.7158C75.6315 40.6123 75.5797 40.4792 75.5797 40.3165V29.8911C75.5797 29.7284 75.6315 29.5953 75.735 29.4918C75.8385 29.3883 75.9716 29.3365 76.1342 29.3365H78.6852C78.8478 29.3365 78.9809 29.3883 79.0844 29.4918C79.1879 29.5953 79.2397 29.7284 79.2397 29.8911V30.734C79.6242 30.2756 80.127 29.8911 80.7481 29.5805C81.3692 29.27 82.1012 29.1147 82.9441 29.1147C83.8018 29.1147 84.5559 29.307 85.2066 29.6915C85.8721 30.0759 86.3896 30.6453 86.7593 31.3995C87.1438 32.1389 87.3361 33.0483 87.3361 34.1278V40.3165C87.3361 40.4792 87.2769 40.6123 87.1586 40.7158C87.0551 40.8193 86.9294 40.8711 86.7815 40.8711H83.9866C83.8387 40.8711 83.7056 40.8193 83.5873 40.7158C83.4838 40.6123 83.4321 40.4792 83.4321 40.3165V34.2609C83.4321 33.5659 83.262 33.0335 82.9219 32.6638C82.5966 32.2793 82.1086 32.0871 81.4579 32.0871C80.8516 32.0871 80.3636 32.2793 79.9939 32.6638C79.639 33.0335 79.4615 33.5659 79.4615 34.2609V40.3165C79.4615 40.4792 79.4024 40.6123 79.2841 40.7158C79.1806 40.8193 79.0549 40.8711 78.907 40.8711H76.1342ZM90.3661 40.8711C90.2035 40.8711 90.0704 40.8193 89.9669 40.7158C89.8633 40.6123 89.8116 40.4792 89.8116 40.3165V29.8911C89.8116 29.7284 89.8633 29.5953 89.9669 29.4918C90.0704 29.3883 90.2035 29.3365 90.3661 29.3365H92.917C93.0797 29.3365 93.2128 29.3883 93.3163 29.4918C93.4198 29.5953 93.4716 29.7284 93.4716 29.8911V30.734C93.8561 30.2756 94.3589 29.8911 94.98 29.5805C95.601 29.27 96.333 29.1147 97.176 29.1147C98.0337 29.1147 98.7878 29.307 99.4385 29.6915C100.104 30.0759 100.622 30.6453 100.991 31.3995C101.376 32.1389 101.568 33.0483 101.568 34.1278V40.3165C101.568 40.4792 101.509 40.6123 101.39 40.7158C101.287 40.8193 101.161 40.8711 101.013 40.8711H98.2185C98.0706 40.8711 97.9375 40.8193 97.8192 40.7158C97.7157 40.6123 97.664 40.4792 97.664 40.3165V34.2609C97.664 33.5659 97.4939 33.0335 97.1538 32.6638C96.8284 32.2793 96.3404 32.0871 95.6898 32.0871C95.0835 32.0871 94.5955 32.2793 94.2258 32.6638C93.8709 33.0335 93.6934 33.5659 93.6934 34.2609V40.3165C93.6934 40.4792 93.6343 40.6123 93.516 40.7158C93.4124 40.8193 93.2867 40.8711 93.1389 40.8711H90.3661ZM109.367 41.0929C107.622 41.0929 106.232 40.6197 105.197 39.6733C104.162 38.7269 103.622 37.322 103.578 35.4587C103.578 35.3552 103.578 35.2221 103.578 35.0595C103.578 34.8968 103.578 34.7711 103.578 34.6824C103.622 33.5141 103.881 32.5159 104.354 31.6878C104.842 30.8449 105.507 30.209 106.35 29.7802C107.208 29.3365 108.206 29.1147 109.345 29.1147C110.646 29.1147 111.718 29.3735 112.561 29.8911C113.419 30.4087 114.062 31.1111 114.491 31.9984C114.92 32.8856 115.134 33.8986 115.134 35.0373V35.5696C115.134 35.7323 115.075 35.8654 114.957 35.9689C114.853 36.0724 114.728 36.1242 114.58 36.1242H107.482C107.482 36.139 107.482 36.1612 107.482 36.1907C107.482 36.2203 107.482 36.2499 107.482 36.2795C107.496 36.7083 107.57 37.1002 107.703 37.4551C107.837 37.81 108.044 38.091 108.325 38.298C108.606 38.505 108.946 38.6085 109.345 38.6085C109.641 38.6085 109.885 38.5642 110.077 38.4755C110.284 38.3719 110.454 38.261 110.587 38.1427C110.72 38.0096 110.824 37.8987 110.898 37.81C111.031 37.6621 111.134 37.5734 111.208 37.5438C111.297 37.4995 111.43 37.4773 111.607 37.4773H114.358C114.506 37.4773 114.624 37.5216 114.713 37.6104C114.816 37.6843 114.861 37.7952 114.846 37.9431C114.831 38.1945 114.706 38.4976 114.469 38.8525C114.232 39.2075 113.885 39.5624 113.426 39.9173C112.983 40.2574 112.421 40.5384 111.741 40.7602C111.06 40.982 110.269 41.0929 109.367 41.0929ZM107.482 33.9282H111.23V33.8838C111.23 33.4106 111.156 32.9965 111.009 32.6416C110.875 32.2867 110.661 32.0132 110.365 31.8209C110.084 31.6287 109.744 31.5325 109.345 31.5325C108.946 31.5325 108.606 31.6287 108.325 31.8209C108.058 32.0132 107.851 32.2867 107.703 32.6416C107.556 32.9965 107.482 33.4106 107.482 33.8838V33.9282ZM122.515 41.0929C121.421 41.0929 120.452 40.8933 119.61 40.494C118.767 40.0947 118.094 39.518 117.591 38.7638C117.103 37.9949 116.837 37.078 116.792 36.0133C116.778 35.7767 116.77 35.4809 116.77 35.126C116.77 34.7563 116.778 34.4532 116.792 34.2165C116.837 33.137 117.103 32.2202 117.591 31.466C118.079 30.697 118.744 30.1129 119.587 29.7136C120.445 29.3144 121.421 29.1147 122.515 29.1147C123.536 29.1147 124.408 29.2626 125.133 29.5584C125.857 29.8393 126.449 30.1942 126.907 30.6231C127.366 31.0519 127.706 31.4956 127.928 31.954C128.164 32.3976 128.29 32.7895 128.305 33.1296C128.32 33.2775 128.268 33.4106 128.15 33.5289C128.031 33.6324 127.898 33.6842 127.75 33.6842H124.933C124.771 33.6842 124.645 33.6472 124.556 33.5733C124.467 33.4993 124.386 33.3884 124.312 33.2405C124.135 32.7821 123.905 32.4568 123.624 32.2645C123.358 32.0723 123.011 31.9762 122.582 31.9762C121.99 31.9762 121.532 32.1684 121.207 32.5529C120.896 32.9374 120.726 33.5289 120.696 34.3275C120.682 34.919 120.682 35.4439 120.696 35.9024C120.726 36.7157 120.896 37.3072 121.207 37.6769C121.532 38.0466 121.99 38.2315 122.582 38.2315C123.04 38.2315 123.403 38.1353 123.669 37.9431C123.935 37.7509 124.149 37.4255 124.312 36.9671C124.386 36.8192 124.467 36.7083 124.556 36.6344C124.645 36.5604 124.771 36.5235 124.933 36.5235H127.75C127.898 36.5235 128.031 36.5826 128.15 36.7009C128.268 36.8044 128.32 36.9301 128.305 37.078C128.29 37.3294 128.216 37.6252 128.083 37.9653C127.95 38.2906 127.743 38.6381 127.462 39.0078C127.181 39.3775 126.811 39.725 126.353 40.0504C125.909 40.3609 125.369 40.6123 124.734 40.8045C124.098 40.9968 123.358 41.0929 122.515 41.0929ZM136.198 40.8711C135.252 40.8711 134.431 40.7232 133.736 40.4275C133.056 40.1169 132.531 39.6437 132.161 39.0078C131.791 38.3572 131.606 37.5216 131.606 36.5013V32.2424H129.876C129.714 32.2424 129.573 32.1906 129.455 32.0871C129.351 31.9836 129.3 31.8505 129.3 31.6878V29.8911C129.3 29.7284 129.351 29.5953 129.455 29.4918C129.573 29.3883 129.714 29.3365 129.876 29.3365H131.606V25.6765C131.606 25.5139 131.658 25.3808 131.762 25.2773C131.88 25.1738 132.013 25.122 132.161 25.122H134.734C134.897 25.122 135.03 25.1738 135.133 25.2773C135.237 25.3808 135.289 25.5139 135.289 25.6765V29.3365H138.061C138.224 29.3365 138.357 29.3883 138.461 29.4918C138.564 29.5953 138.616 29.7284 138.616 29.8911V31.6878C138.616 31.8505 138.564 31.9836 138.461 32.0871C138.357 32.1906 138.224 32.2424 138.061 32.2424H135.289V36.1907C135.289 36.6935 135.385 37.0928 135.577 37.3885C135.769 37.6843 136.095 37.8322 136.553 37.8322H138.261C138.424 37.8322 138.557 37.8839 138.66 37.9875C138.764 38.091 138.816 38.2241 138.816 38.3867V40.3165C138.816 40.4792 138.764 40.6123 138.66 40.7158C138.557 40.8193 138.424 40.8711 138.261 40.8711H136.198Z" fill="white"/>
<path d="M61.896 23.4016C61.8147 23.4016 61.7481 23.3757 61.6964 23.324C61.6446 23.2722 61.6187 23.2057 61.6187 23.1243V15.9152C61.6187 15.8339 61.6446 15.7674 61.6964 15.7156C61.7481 15.6639 61.8147 15.638 61.896 15.638H63.3822C63.4635 15.638 63.53 15.6639 63.5818 15.7156C63.6336 15.7674 63.6594 15.8339 63.6594 15.9152V23.1243C63.6594 23.2057 63.6336 23.2722 63.5818 23.324C63.53 23.3757 63.4635 23.4016 63.3822 23.4016H61.896ZM67.1999 23.4016C67.1185 23.4016 67.052 23.3757 67.0002 23.324C66.9485 23.2722 66.9226 23.2057 66.9226 23.1243V17.3792H64.9484C64.8671 17.3792 64.8005 17.3534 64.7488 17.3016C64.697 17.2425 64.6711 17.1759 64.6711 17.102V15.9152C64.6711 15.8339 64.697 15.7674 64.7488 15.7156C64.8005 15.6639 64.8671 15.638 64.9484 15.638H70.9153C70.9967 15.638 71.0632 15.6639 71.115 15.7156C71.1667 15.7674 71.1926 15.8339 71.1926 15.9152V17.102C71.1926 17.1759 71.1667 17.2425 71.115 17.3016C71.0632 17.3534 70.9967 17.3792 70.9153 17.3792H68.9411V23.1243C68.9411 23.2057 68.9153 23.2722 68.8635 23.324C68.8117 23.3757 68.7452 23.4016 68.6639 23.4016H67.1999ZM72.4778 23.4016C72.3965 23.4016 72.33 23.3757 72.2782 23.324C72.2264 23.2722 72.2006 23.2057 72.2006 23.1243V15.9152C72.2006 15.8339 72.2264 15.7674 72.2782 15.7156C72.33 15.6639 72.3965 15.638 72.4778 15.638H75.8606C76.4964 15.638 77.0177 15.7267 77.4244 15.9042C77.8311 16.0816 78.1305 16.3367 78.3228 16.6694C78.5224 16.9948 78.6222 17.3829 78.6222 17.834C78.6222 18.1002 78.5704 18.3368 78.4669 18.5438C78.3708 18.7434 78.2488 18.9098 78.1009 19.0429C77.9604 19.176 77.8274 19.2721 77.7017 19.3312C77.9826 19.4643 78.2303 19.6825 78.4448 19.9856C78.6666 20.2888 78.7775 20.6437 78.7775 21.0503C78.7775 21.5383 78.6666 21.9598 78.4448 22.3147C78.2303 22.6622 77.9124 22.9321 77.4909 23.1243C77.0769 23.3092 76.5667 23.4016 75.9604 23.4016H72.4778ZM74.1858 21.9598H75.7386C76.0565 21.9598 76.2968 21.8674 76.4595 21.6825C76.6221 21.4977 76.7035 21.2869 76.7035 21.0503C76.7035 20.7916 76.6184 20.5734 76.4484 20.396C76.2857 20.2185 76.0491 20.1298 75.7386 20.1298H74.1858V21.9598ZM74.1858 18.7212H75.6388C75.9419 18.7212 76.1674 18.6436 76.3153 18.4883C76.4706 18.3331 76.5482 18.1334 76.5482 17.8894C76.5482 17.6528 76.4706 17.4606 76.3153 17.3127C76.1674 17.1574 75.9419 17.0798 75.6388 17.0798H74.1858V18.7212Z" fill="white"/>
</svg>
