<svg width="1478" height="529" viewBox="0 0 1478 529" fill="none" xmlns="http://www.w3.org/2000/svg">
<g clip-path="url(#clip0_600_4416)">
<path d="M105.622 105.575C105.622 47.2308 152.907 -0.0597021 211.243 -0.0597046C211.243 58.2844 163.959 105.575 105.622 105.575Z" fill="#A2CFC2"/>
<path d="M-3.5135e-05 -0.0594406C-3.76853e-05 -58.4035 47.2844 -105.694 105.621 -105.694C163.958 -105.694 211.242 -58.4035 211.242 -0.0594498C152.905 -0.0594473 105.621 47.231 105.621 105.575C47.2844 105.575 -3.25847e-05 58.2846 -3.5135e-05 -0.0594406Z" fill="#65A492"/>
<path d="M1161.2 105.575C1161.2 47.2308 1208.49 -0.0596563 1266.82 -0.0596589C1266.82 58.2844 1219.54 105.575 1161.2 105.575Z" fill="#A2CFC2"/>
<path d="M1055.58 -0.0593948C1055.58 -58.4035 1102.87 -105.694 1161.2 -105.694C1219.54 -105.694 1266.82 -58.4035 1266.82 -0.0594041C1208.49 -0.0594015 1161.2 47.2311 1161.2 105.575C1102.87 105.575 1055.58 58.2847 1055.58 -0.0593948Z" fill="#065BD0"/>
<path d="M211.268 105.575L211.268 -0.0599747C269.605 -0.0599772 316.889 47.2305 316.889 105.575L211.268 105.575Z" fill="#065BD0"/>
<path d="M422.511 -0.0599183L422.511 105.575L316.89 105.575C316.89 47.2306 364.175 -0.0599157 422.511 -0.0599183Z" fill="#065BD0"/>
<path d="M1266.85 105.575L1266.85 -0.0599899C1325.18 -0.0599925 1372.47 47.2305 1372.47 105.575L1266.85 105.575Z" fill="#065BD0"/>
<path d="M1478.09 -0.0599335L1478.09 105.575L1372.47 105.575C1372.47 47.2305 1419.75 -0.059931 1478.09 -0.0599335Z" fill="#065BD0"/>
<path d="M633.807 105.575L633.806 -0.0599594C692.143 -0.059962 739.428 47.2305 739.428 105.575L633.807 105.575Z" fill="#065BD0"/>
<path d="M845.048 -0.059903L845.048 105.575L739.427 105.575C739.427 47.2306 786.711 -0.0599004 845.048 -0.059903Z" fill="#065BD0"/>
<path d="M422.538 -105.694L633.78 -105.694L633.78 -0.0594041C575.444 -0.0594015 528.159 47.2311 528.159 105.575C528.159 47.2311 480.875 -0.0593974 422.538 -0.0593948L422.538 -105.694Z" fill="#71AD9B"/>
<path d="M1373.16 106C1373.16 164.344 1325.87 211.635 1267.54 211.635C1267.54 153.291 1314.82 106 1373.16 106Z" fill="#A2CFC2"/>
<path d="M1478.78 211.635C1478.78 269.979 1431.5 317.269 1373.16 317.269C1314.82 317.269 1267.54 269.979 1267.54 211.635C1325.88 211.635 1373.16 164.344 1373.16 106C1431.5 106 1478.78 153.291 1478.78 211.635Z" fill="#65A492"/>
<path d="M1161.89 317.27L1056.27 317.27L1056.27 211.635C1114.61 211.635 1161.89 258.926 1161.89 317.27Z" fill="#065BD0"/>
<path d="M1267.51 317.27L1161.89 317.27C1161.89 258.926 1209.18 211.635 1267.51 211.635L1267.51 317.27Z" fill="#065BD0"/>
<path d="M1267.51 106.001L1267.51 211.635C1209.18 211.635 1161.89 164.345 1161.89 106.001L1267.51 106.001Z" fill="#065BD0"/>
<path d="M1056.27 211.635L1056.27 106.001L1161.89 106.001C1161.89 164.345 1114.61 211.635 1056.27 211.635Z" fill="#065BD0"/>
<path d="M1056.47 -0.365083C1056.47 -58.7054 1009.18 -106 950.851 -106C892.518 -106 845.23 -58.7054 845.23 -0.365074C845.23 57.9753 892.518 105.269 950.851 105.269C1009.18 105.269 1056.47 57.9753 1056.47 -0.365083Z" fill="#71AD9B"/>
<path d="M1372.97 528.574C1372.97 470.23 1420.26 422.94 1478.59 422.94C1478.59 481.284 1431.31 528.574 1372.97 528.574Z" fill="#A2CFC2"/>
<path d="M1267.35 422.94C1267.35 364.596 1314.64 317.306 1372.97 317.306C1431.31 317.306 1478.59 364.596 1478.59 422.94C1420.26 422.94 1372.97 470.231 1372.97 528.575C1314.64 528.575 1267.35 481.284 1267.35 422.94Z" fill="#065BD0"/>
</g>
<defs>
<clipPath id="clip0_600_4416">
<rect width="529" height="1479" fill="white" transform="translate(0 529) rotate(-90)"/>
</clipPath>
</defs>
</svg>
