<svg width="423" height="212" viewBox="0 0 423 212" fill="none" xmlns="http://www.w3.org/2000/svg">
<path d="M105.622 0.000160217L211.243 0.0001556L211.243 105.635C152.907 105.635 105.622 58.3442 105.622 0.000160217Z" fill="#065BD0"/>
<path d="M-0.000126688 0.000160217L105.621 0.0001556C105.621 58.3442 58.3365 105.635 -0.00012207 105.635L-0.000126688 0.000160217Z" fill="#065BD0"/>
<path d="M-0.00012207 211.269L-0.000126688 105.635C58.3365 105.635 105.621 152.925 105.621 211.269L-0.00012207 211.269Z" fill="#065BD0"/>
<path d="M211.243 105.635L211.243 211.269L105.622 211.269C105.622 152.925 152.907 105.635 211.243 105.635Z" fill="#065BD0"/>
<path d="M211.27 0.000747681L422.512 0.000738447L422.512 105.635C364.176 105.635 316.891 152.926 316.891 211.27C316.891 152.926 269.607 105.635 211.27 105.635L211.27 0.000747681Z" fill="#71AD9B"/>
</svg>
