<svg width="49" height="49" viewBox="0 0 49 49" fill="none" xmlns="http://www.w3.org/2000/svg">
<path fill-rule="evenodd" clip-rule="evenodd" d="M24.5379 4.49988C35.5661 4.49988 44.5378 11.7809 44.5378 20.7303C44.5378 24.3118 43.1491 27.5376 40.2508 30.7164H40.2517C36.0556 35.5456 26.6724 41.4283 24.5379 42.3279C22.4622 43.2024 22.7026 41.8343 22.7975 41.2936C22.8002 41.2783 22.8028 41.2636 22.8052 41.2497C22.8562 40.9488 23.0909 39.5374 23.0909 39.5374C23.158 39.0268 23.2278 38.2345 23.0261 37.7291C22.802 37.1724 21.9153 36.8835 21.2643 36.7427C11.6529 35.4727 4.53784 28.7533 4.53784 20.7303C4.53784 11.7809 13.5105 4.49988 24.5379 4.49988ZM20.4822 16.4055H19.064C18.8532 16.4055 18.682 16.5766 18.682 16.7874V25.5159C18.682 25.7268 18.8532 25.8978 19.064 25.8978H20.4822C20.6933 25.8978 20.8641 25.7268 20.8641 25.5159V16.7874C20.8641 16.5766 20.6933 16.4055 20.4822 16.4055ZM17.4815 25.5159C17.4815 25.727 17.3106 25.8978 17.0997 25.8978H11.4807C11.2698 25.8978 11.0988 25.727 11.0988 25.5159V16.7875C11.0988 16.5766 11.2698 16.4056 11.4807 16.4056H12.8992C13.1092 16.4056 13.2809 16.5773 13.2809 16.7875V23.7157H17.0997C17.3096 23.7157 17.4815 23.8874 17.4815 24.0974V25.5159ZM32.2653 25.8978H37.8843C38.0952 25.8978 38.2661 25.727 38.2661 25.5159V24.0974C38.2661 23.8874 38.0942 23.7157 37.8843 23.7157H34.0657V22.2428H37.8843C38.0952 22.2428 38.2661 22.0718 38.2661 21.861V20.4424C38.2661 20.2325 38.0942 20.0606 37.8843 20.0606H34.0657V18.5877H37.8843C38.0952 18.5877 38.2661 18.4167 38.2661 18.2058V16.7875C38.2661 16.5773 38.0942 16.4056 37.8843 16.4056H32.2653C32.0544 16.4056 31.8834 16.5766 31.8834 16.7875V25.5159C31.8834 25.727 32.0544 25.8978 32.2653 25.8978ZM28.7198 16.4055H30.1381C30.349 16.4055 30.52 16.5766 30.52 16.7874V25.5159C30.52 25.7268 30.349 25.8978 30.1381 25.8978H28.7277C28.693 25.8978 28.6596 25.8927 28.6277 25.8843L28.6252 25.8838L28.6223 25.883C28.6133 25.8806 28.6045 25.8776 28.5959 25.8746C28.5919 25.8732 28.5878 25.8717 28.5839 25.8701C28.5775 25.8676 28.5715 25.865 28.5651 25.862C28.5588 25.8594 28.5528 25.8564 28.5468 25.853C28.5428 25.8513 28.5393 25.8491 28.5355 25.847C28.5275 25.8425 28.5192 25.8376 28.5115 25.8324L28.5072 25.8294C28.4699 25.8041 28.4362 25.7722 28.4086 25.7332L24.41 20.3334V25.5159C24.41 25.7268 24.2391 25.8978 24.0282 25.8978H22.6098C22.399 25.8978 22.228 25.7268 22.228 25.5159V16.7874C22.228 16.5766 22.399 16.4055 22.6098 16.4055H24.0203C24.0248 16.4055 24.0291 16.4061 24.0336 16.4062C24.0404 16.4064 24.0471 16.4066 24.0539 16.4074C24.0608 16.4079 24.0676 16.4089 24.0745 16.4096L24.0906 16.4122L24.1036 16.415L24.1133 16.4171C24.118 16.4182 24.1225 16.4194 24.127 16.4207C24.1348 16.4229 24.1425 16.4254 24.1502 16.4282L24.1626 16.4327C24.1701 16.4357 24.1776 16.4389 24.1849 16.4422C24.189 16.4441 24.193 16.4462 24.1971 16.4482C24.2042 16.4518 24.2111 16.4557 24.2181 16.4599L24.2241 16.4633L24.2297 16.4668C24.2368 16.4715 24.2436 16.476 24.25 16.4807L24.2604 16.4884C24.2676 16.4942 24.2743 16.5 24.2811 16.506L24.2882 16.5125C24.2963 16.52 24.3039 16.5281 24.3113 16.5363L24.3137 16.5392C24.3246 16.5515 24.3351 16.5647 24.3444 16.5785L28.3379 21.9716V16.7874C28.3379 16.5766 28.5089 16.4055 28.7198 16.4055Z" fill="white"/>
</svg>
