<svg width="49" height="49" viewBox="0 0 49 49" fill="none" xmlns="http://www.w3.org/2000/svg">
<path d="M44.5378 7.44118V41.5588C44.5378 42.3389 44.228 43.087 43.6764 43.6386C43.1248 44.1901 42.3767 44.5 41.5967 44.5H7.47902C6.69897 44.5 5.95087 44.1901 5.39929 43.6386C4.84771 43.087 4.53784 42.3389 4.53784 41.5588V7.44118C4.53784 6.66113 4.84771 5.91303 5.39929 5.36145C5.95087 4.80987 6.69897 4.5 7.47902 4.5H41.5967C42.3767 4.5 43.1248 4.80987 43.6764 5.36145C44.228 5.91303 44.5378 6.66113 44.5378 7.44118ZM16.3025 19.7941H10.4202V38.6176H16.3025V19.7941ZM16.832 13.3235C16.8351 12.8786 16.7505 12.4374 16.5831 12.0251C16.4157 11.6128 16.1687 11.2376 15.8562 10.9208C15.5438 10.604 15.172 10.3518 14.7621 10.1787C14.3522 10.0055 13.9122 9.91484 13.4673 9.91176H13.3614C12.4565 9.91176 11.5887 10.2712 10.9489 10.911C10.3091 11.5509 9.94961 12.4187 9.94961 13.3235C9.94961 14.2284 10.3091 15.0962 10.9489 15.736C11.5887 16.3758 12.4565 16.7353 13.3614 16.7353C13.8064 16.7462 14.2491 16.6694 14.6644 16.5092C15.0797 16.3489 15.4593 16.1084 15.7816 15.8014C16.1039 15.4944 16.3626 15.1269 16.5428 14.7199C16.723 14.3129 16.8213 13.8744 16.832 13.4294V13.3235ZM38.6555 27.1824C38.6555 21.5235 35.0555 19.3235 31.479 19.3235C30.308 19.2649 29.1421 19.5143 28.0976 20.0469C27.053 20.5795 26.1664 21.3766 25.5261 22.3588H25.3614V19.7941H19.832V38.6176H25.7143V28.6059C25.6293 27.5805 25.9523 26.563 26.6131 25.7744C27.274 24.9858 28.2193 24.4898 29.2437 24.3941H29.4673C31.3378 24.3941 32.7261 25.5706 32.7261 28.5353V38.6176H38.6084L38.6555 27.1824Z" fill="white"/>
</svg>
