<svg width="98" height="81" viewBox="0 0 98 81" fill="none" xmlns="http://www.w3.org/2000/svg">
<path d="M82.9386 9.64895C77.0505 4.64114 69.8523 1.42293 62.194 0.374367C54.5358 -0.674192 46.7374 0.490705 39.7199 3.73149C32.7024 6.97226 26.7588 12.1536 22.5912 18.6635C18.4235 25.1734 16.2059 32.74 16.2001 40.4697C16.1943 48.1994 18.4006 55.7693 22.5585 62.2854C26.7164 68.8016 32.6522 73.9918 39.6649 77.243C46.6775 80.4943 54.4741 81.6709 62.1339 80.6338C69.7937 79.5967 76.9968 76.3893 82.8924 71.3903L74.1635 61.0957C70.2327 64.4288 65.4301 66.5673 60.323 67.2587C55.216 67.9502 50.0177 67.1657 45.342 64.998C40.6664 62.8302 36.7088 59.3697 33.9366 55.0252C31.1644 50.6806 29.6933 45.6335 29.6972 40.4798C29.701 35.3261 31.1796 30.2812 33.9584 25.9408C36.7371 21.6003 40.6999 18.1458 45.3787 15.985C50.0576 13.8243 55.2571 13.0476 60.3631 13.7467C65.4692 14.4458 70.2685 16.5915 74.1943 19.9304L82.9386 9.64895Z" fill="#065BD0"/>
<circle cx="51.7022" cy="40.6723" r="8.61702" fill="#65A492"/>
<rect x="0.344788" y="37.2255" width="52.3915" height="6.54894" fill="#65A492"/>
<rect x="0.344788" y="16.8894" width="5.85957" height="26.8851" fill="#65A492"/>
<circle cx="3.27459" cy="10.1681" r="3.27447" fill="#65A492"/>
</svg>
