<svg width="496" height="248" viewBox="0 0 496 248" fill="none" xmlns="http://www.w3.org/2000/svg">
<path d="M2.67029e-05 61.8823L2.67029e-05 -0.000102997L61.8904 -0.000102997C61.8904 34.1788 34.1833 61.8823 2.67029e-05 61.8823Z" fill="#065BD0"/>
<path d="M2.67029e-05 123.766L2.67029e-05 61.8832C34.1833 61.8832 61.8904 89.5867 61.8904 123.766L2.67029e-05 123.766Z" fill="#065BD0"/>
<path d="M123.781 123.766L61.8904 123.766C61.8904 89.5867 89.5975 61.8832 123.781 61.8832L123.781 123.766Z" fill="#065BD0"/>
<path d="M61.8904 -0.000102997L123.781 -0.000102997L123.781 61.8823C89.5975 61.8823 61.8904 34.1788 61.8904 -0.000102997Z" fill="#065BD0"/>
<path d="M123.781 185.648C89.5975 185.648 61.8904 157.945 61.8904 123.766C96.0737 123.766 123.781 151.469 123.781 185.648Z" fill="#A2CFC2"/>
<path d="M61.8904 247.531C27.7071 247.531 5.34058e-05 219.828 5.34058e-05 185.649C5.34058e-05 151.47 27.7071 123.767 61.8904 123.767C61.8904 157.946 89.5975 185.649 123.781 185.649C123.781 219.828 96.0737 247.531 61.8904 247.531Z" fill="#065BD0"/>
<path d="M433.89 3.8147e-05C399.709 3.8147e-05 372 27.7057 372 61.8825C372 96.0592 399.709 123.765 433.89 123.765C468.072 123.765 495.781 96.0592 495.781 61.8825C495.781 27.7057 468.072 3.8147e-05 433.89 3.8147e-05Z" fill="#71AD9B"/>
<path d="M372 185.647L372 123.765L433.89 123.765C433.89 157.944 406.183 185.647 372 185.647Z" fill="#065BD0"/>
<path d="M372 247.529L372 185.647C406.183 185.647 433.89 213.35 433.89 247.529L372 247.529Z" fill="#065BD0"/>
<path d="M495.781 247.529L433.89 247.529C433.89 213.35 461.597 185.647 495.781 185.647L495.781 247.529Z" fill="#065BD0"/>
<path d="M433.89 123.765L495.781 123.765L495.781 185.647C461.597 185.647 433.89 157.944 433.89 123.765Z" fill="#065BD0"/>
<rect x="124" width="248" height="248" fill="#65A492"/>
<g clip-path="url(#clip0_184_864)">
<path d="M322.927 89.5648C295.912 90.2925 269.079 100.935 248.431 121.583C227.784 142.23 217.141 169.063 216.414 196.078C216.414 197.715 217.051 199.353 218.324 200.626C219.597 201.9 221.235 202.536 222.872 202.536L245.43 202.536C247.067 202.536 248.704 201.9 249.978 200.626C251.206 199.398 251.842 197.761 251.888 196.169C252.115 189.211 253.389 182.298 255.572 175.658C256.345 173.429 255.845 170.837 254.025 169.018L239.927 154.919C244.338 146.142 250.251 137.955 257.527 130.678C264.804 123.402 272.991 117.489 281.723 113.032L295.821 127.131C297.595 128.905 300.233 129.451 302.461 128.677C309.147 126.449 316.06 125.266 322.973 124.994C324.61 124.994 326.202 124.311 327.43 123.083C328.703 121.81 329.34 120.173 329.34 118.535V95.9775C329.34 94.3402 328.703 92.703 327.43 91.4295C326.202 90.2016 324.564 89.5649 322.927 89.5648ZM263.986 53.8178L251.16 53.8178L251.115 86.1539L263.94 86.1539C263.94 86.1539 263.622 54.4545 263.986 53.8178ZM207.5 71.5549L198.404 80.6508L221.144 103.391L230.24 94.2947L207.5 71.5549ZM213.003 137.091L213.003 124.266L180.667 124.22L180.667 137.137C181.304 136.773 213.003 137.091 213.003 137.091Z" fill="white"/>
</g>
<defs>
<clipPath id="clip0_184_864">
<rect width="154.363" height="154.363" fill="white" transform="translate(139.28 121.583) rotate(-45)"/>
</clipPath>
</defs>
</svg>
