<svg width="26" height="26" viewBox="0 0 26 26" fill="none" xmlns="http://www.w3.org/2000/svg">
<path d="M18.6105 4.39932L21.6007 7.38806M20.5334 1.76635L12.4481 9.85161C12.0304 10.2688 11.7454 10.8003 11.6293 11.3792L10.8825 15.1175L14.6208 14.3693C15.1997 14.2535 15.7305 13.9698 16.1484 13.5519L24.2337 5.46662C24.4766 5.22366 24.6693 4.93522 24.8008 4.61777C24.9323 4.30033 25 3.96009 25 3.61649C25 3.27289 24.9323 2.93265 24.8008 2.6152C24.6693 2.29775 24.4766 2.00932 24.2337 1.76635C23.9907 1.52339 23.7022 1.33066 23.3848 1.19917C23.0674 1.06768 22.7271 1 22.3835 1C22.0399 1 21.6997 1.06768 21.3822 1.19917C21.0648 1.33066 20.7763 1.52339 20.5334 1.76635V1.76635Z" stroke="#777676" stroke-width="2" stroke-linecap="round" stroke-linejoin="round"/>
<path d="M22.1767 17.941V22.1764C22.1767 22.9252 21.8792 23.6434 21.3497 24.1729C20.8202 24.7024 20.102 24.9999 19.3531 24.9999H3.82356C3.0747 24.9999 2.35652 24.7024 1.827 24.1729C1.29748 23.6434 1 22.9252 1 22.1764V6.6468C1 5.89795 1.29748 5.17976 1.827 4.65024C2.35652 4.12072 3.0747 3.82324 3.82356 3.82324H8.0589" stroke="#777676" stroke-width="2" stroke-linecap="round" stroke-linejoin="round"/>
</svg>
