<svg width="43" height="21" viewBox="0 0 43 21" fill="none" xmlns="http://www.w3.org/2000/svg">
<path d="M0 10.5C5.80006 10.5 10.5013 15.2006 10.5013 21C4.70121 21 -5.06993e-07 16.2994 0 10.5Z" fill="#A2CFC2"/>
<path d="M10.5013 9.1805e-07C16.3013 1.42511e-06 21.0025 4.70061 21.0025 10.4999C21.0025 16.2992 16.3013 20.9999 10.5013 20.9999C10.5013 15.2005 5.80006 10.4999 -9.17933e-07 10.4999C-4.1094e-07 4.70061 4.70121 4.10993e-07 10.5013 9.1805e-07Z" fill="#065BD0"/>
<path d="M42.0047 10.4997L42.0047 20.9996L31.5034 20.9996C31.5034 15.2003 36.2046 10.4997 42.0047 10.4997Z" fill="#065BD0"/>
<path d="M42.0047 9.1805e-07L42.0047 10.4999C36.2046 10.4999 31.5034 5.79932 31.5034 0L42.0047 9.1805e-07Z" fill="#065BD0"/>
<path d="M21.0024 0L31.5037 9.1805e-07C31.5037 5.79932 26.8025 10.4999 21.0024 10.4999L21.0024 0Z" fill="#065BD0"/>
<path d="M31.5037 20.9996L21.0024 20.9996L21.0024 10.4997C26.8025 10.4997 31.5037 15.2003 31.5037 20.9996Z" fill="#065BD0"/>
</svg>
