<svg width="124" height="497" viewBox="0 0 124 497" fill="none" xmlns="http://www.w3.org/2000/svg">
<path d="M0.219265 62.8521L0.219265 0.969685L62.1096 0.969685C62.1096 35.1486 34.4025 62.8521 0.219265 62.8521Z" fill="#065BD0"/>
<path d="M0.219265 124.735L0.219265 62.853C34.4025 62.853 62.1096 90.5565 62.1096 124.735L0.219265 124.735Z" fill="#065BD0"/>
<path d="M124 124.735L62.1096 124.735C62.1096 90.5564 89.8167 62.8529 124 62.8529L124 124.735Z" fill="#065BD0"/>
<path d="M62.1096 0.969685L124 0.969685L124 62.8521C89.8167 62.8521 62.1096 35.1486 62.1096 0.969685Z" fill="#065BD0"/>
<path d="M124 186.618C89.8167 186.618 62.1096 158.914 62.1096 124.735C96.2929 124.735 124 152.439 124 186.618Z" fill="#A2CFC2"/>
<path d="M62.1096 248.501C27.9264 248.501 0.219292 220.798 0.219292 186.619C0.219292 152.44 27.9264 124.736 62.1096 124.736C62.1096 158.915 89.8167 186.619 124 186.619C124 220.798 96.2929 248.501 62.1096 248.501Z" fill="#065BD0"/>
<path d="M62.1096 248.501C27.9286 248.501 0.219292 276.207 0.219292 310.384C0.219292 344.56 27.9286 372.266 62.1096 372.266C96.2907 372.266 124 344.56 124 310.384C124 276.207 96.2907 248.501 62.1096 248.501Z" fill="#71AD9B"/>
<path d="M0.219265 434.148L0.219265 372.266L62.1096 372.266C62.1096 406.445 34.4025 434.148 0.219265 434.148Z" fill="#065BD0"/>
<path d="M0.219265 496.03L0.219265 434.148C34.4025 434.148 62.1096 461.851 62.1096 496.03L0.219265 496.03Z" fill="#065BD0"/>
<path d="M124 496.03L62.1096 496.03C62.1096 461.851 89.8167 434.148 124 434.148L124 496.03Z" fill="#065BD0"/>
<path d="M62.1096 372.266L124 372.266L124 434.148C89.8167 434.148 62.1096 406.445 62.1096 372.266Z" fill="#065BD0"/>
</svg>
