<svg width="248" height="248" viewBox="0 0 248 248" fill="none" xmlns="http://www.w3.org/2000/svg">
<path d="M0.00012207 61.8833C34.1834 61.8833 61.8905 89.5868 61.8905 123.766C27.7072 123.766 0.000119082 96.0622 0.00012207 61.8833Z" fill="#A2CFC2"/>
<path d="M61.8904 5.41063e-06C96.0736 8.39902e-06 123.781 27.7035 123.781 61.8824C123.781 96.0613 96.0736 123.765 61.8903 123.765C61.8903 89.586 34.1833 61.8824 -5.40993e-06 61.8824C-2.42192e-06 27.7035 27.7071 2.42223e-06 61.8904 5.41063e-06Z" fill="#065BD0"/>
<path d="M247.561 61.882L247.561 123.764L185.671 123.764C185.671 89.5855 213.378 61.882 247.561 61.882Z" fill="#065BD0"/>
<path d="M247.561 5.41063e-06L247.561 61.8824C213.378 61.8824 185.671 34.1789 185.671 0L247.561 5.41063e-06Z" fill="#065BD0"/>
<path d="M123.781 0L185.671 5.41063e-06C185.671 34.1789 157.964 61.8824 123.781 61.8824L123.781 0Z" fill="#065BD0"/>
<path d="M185.671 123.764L123.781 123.764L123.781 61.882C157.964 61.882 185.671 89.5855 185.671 123.764Z" fill="#065BD0"/>
<path d="M123.781 185.649L123.781 247.531L61.8903 247.531C61.8903 213.352 89.5974 185.649 123.781 185.649Z" fill="#065BD0"/>
<path d="M123.781 123.766L123.781 185.648C89.5974 185.648 61.8903 157.945 61.8903 123.766L123.781 123.766Z" fill="#065BD0"/>
<path d="M0 123.766L61.8904 123.766C61.8904 157.945 34.1833 185.648 -5.40993e-06 185.648L0 123.766Z" fill="#065BD0"/>
<path d="M61.8903 247.531L-6.64451e-05 247.531L-6.10352e-05 185.649C34.1832 185.649 61.8903 213.352 61.8903 247.531Z" fill="#065BD0"/>
<path d="M185.671 247.531C219.852 247.531 247.561 219.825 247.561 185.648C247.561 151.471 219.852 123.766 185.671 123.766C151.49 123.766 123.781 151.471 123.781 185.648C123.781 219.825 151.49 247.531 185.671 247.531Z" fill="#71AD9B"/>
</svg>
