<svg width="124" height="496" viewBox="0 0 124 496" fill="none" xmlns="http://www.w3.org/2000/svg">
<path d="M123.781 61.8818L123.781 123.764L61.8904 123.764C61.8904 89.5854 89.5975 61.8818 123.781 61.8818Z" fill="#065BD0"/>
<path d="M123.781 0L123.781 61.8824C89.5975 61.8824 61.8904 34.1789 61.8904 0L123.781 0Z" fill="#065BD0"/>
<path d="M0 0L61.8904 0C61.8904 34.1789 34.1833 61.8824 0 61.8824L0 0Z" fill="#065BD0"/>
<path d="M61.8904 123.764L0 123.764L0 61.8818C34.1833 61.8818 61.8904 89.5854 61.8904 123.764Z" fill="#065BD0"/>
<path d="M61.8904 247.529C96.0714 247.529 123.781 219.823 123.781 185.647C123.781 151.47 96.0714 123.764 61.8904 123.764C27.7093 123.764 0 151.47 0 185.647C0 219.823 27.7093 247.529 61.8904 247.529Z" fill="#71AD9B"/>
<path d="M0.00012207 309.413C34.1834 309.413 61.8905 337.116 61.8905 371.295C27.7072 371.295 0.00012207 343.591 0.00012207 309.413Z" fill="#A2CFC2"/>
<path d="M61.8904 247.529C96.0736 247.529 123.781 275.233 123.781 309.412C123.781 343.591 96.0736 371.294 61.8904 371.294C61.8904 337.115 34.1833 309.412 0 309.412C0 275.233 27.7071 247.529 61.8904 247.529Z" fill="#065BD0"/>
<path d="M123.781 433.178L123.781 495.061L61.8904 495.061C61.8904 460.882 89.5975 433.178 123.781 433.178Z" fill="#065BD0"/>
<path d="M123.781 371.295L123.781 433.177C89.5975 433.177 61.8904 405.474 61.8904 371.295L123.781 371.295Z" fill="#065BD0"/>
<path d="M0 371.295L61.8904 371.295C61.8904 405.474 34.1833 433.177 0 433.177L0 371.295Z" fill="#065BD0"/>
<path d="M61.8904 495.061L0 495.061L0 433.178C34.1833 433.178 61.8904 460.882 61.8904 495.061Z" fill="#065BD0"/>
</svg>
