<svg width="496" height="124" viewBox="0 0 496 124" fill="none" xmlns="http://www.w3.org/2000/svg">
<path d="M309.413 123.781C309.413 89.598 337.117 61.8909 371.296 61.8909C371.296 96.0742 343.592 123.781 309.413 123.781Z" fill="#A2CFC2"/>
<path d="M247.529 61.8909C247.529 27.7076 275.233 0.000541687 309.412 0.000541687C343.591 0.000541687 371.294 27.7076 371.294 61.8909C337.115 61.8909 309.412 89.598 309.412 123.781C275.233 123.781 247.529 96.0742 247.529 61.8909Z" fill="#065BD0"/>
<path d="M433.178 0.000270844L495.061 0.000270844L495.061 61.8906C460.882 61.8906 433.178 34.1836 433.178 0.000270844Z" fill="#065BD0"/>
<path d="M371.295 0.000270844L433.178 0.000270844C433.178 34.1836 405.474 61.8906 371.295 61.8906L371.295 0.000270844Z" fill="#065BD0"/>
<path d="M371.295 123.781L371.295 61.8909C405.474 61.8909 433.178 89.598 433.178 123.781L371.295 123.781Z" fill="#065BD0"/>
<path d="M495.061 61.8909L495.061 123.781L433.178 123.781C433.178 89.598 460.882 61.8909 495.061 61.8909Z" fill="#065BD0"/>
<path d="M61.8818 0.000270844L123.764 0.000270844L123.764 61.8906C89.5854 61.8906 61.8818 34.1836 61.8818 0.000270844Z" fill="#065BD0"/>
<path d="M0 0.000270844L61.8824 0.000270844C61.8824 34.1836 34.1789 61.8906 0 61.8906L0 0.000270844Z" fill="#065BD0"/>
<path d="M0 123.781L0 61.8909C34.1789 61.8909 61.8824 89.598 61.8824 123.781L0 123.781Z" fill="#065BD0"/>
<path d="M123.764 61.8909L123.764 123.781L61.8818 123.781C61.8818 89.598 89.5854 61.8909 123.764 61.8909Z" fill="#065BD0"/>
<path d="M247.529 61.8909C247.529 27.7098 219.823 0.000541687 185.647 0.000541687C151.47 0.000541687 123.764 27.7098 123.764 61.8909C123.764 96.072 151.47 123.781 185.647 123.781C219.823 123.781 247.529 96.072 247.529 61.8909Z" fill="#71AD9B"/>
</svg>
