<svg width="49" height="49" viewBox="0 0 49 49" fill="none" xmlns="http://www.w3.org/2000/svg">
<path fill-rule="evenodd" clip-rule="evenodd" d="M24.5378 4.5C19.1058 4.5 18.4258 4.52267 16.2925 4.62C14.1632 4.71733 12.7085 5.056 11.4365 5.55067C10.1032 6.052 8.89384 6.83867 7.89384 7.85733C6.8768 8.85618 6.08965 10.0647 5.58718 11.3987C5.09518 12.6707 4.75518 14.1267 4.65784 16.256C4.56184 18.388 4.53784 19.0667 4.53784 24.5C4.53784 29.9333 4.56051 30.612 4.65784 32.7453C4.75518 34.8747 5.09384 36.3293 5.58851 37.6013C6.08984 38.9347 6.87651 40.144 7.89517 41.144C8.89405 42.161 10.1025 42.9482 11.4365 43.4507C12.7085 43.944 14.1632 44.2827 16.2925 44.38C18.4258 44.4773 19.1058 44.5 24.5378 44.5C29.9698 44.5 30.6498 44.4773 32.7832 44.38C34.9125 44.2827 36.3672 43.944 37.6392 43.4493C38.9725 42.948 40.1818 42.1613 41.1818 41.1427C42.1989 40.1438 42.986 38.9353 43.4885 37.6013C43.9818 36.3293 44.3205 34.8747 44.4178 32.7453C44.5152 30.612 44.5378 29.932 44.5378 24.5C44.5378 19.068 44.5152 18.388 44.4178 16.2547C44.3205 14.1253 43.9818 12.6707 43.4872 11.3987C42.9851 10.0641 42.1979 8.85509 41.1805 7.856C40.1817 6.83896 38.9732 6.05181 37.6392 5.54933C36.3672 5.05733 34.9112 4.71733 32.7818 4.62C30.6498 4.524 29.9712 4.5 24.5378 4.5ZM24.5378 8.104C29.8778 8.104 30.5112 8.124 32.6205 8.22C34.5698 8.30933 35.6285 8.63333 36.3338 8.90933C37.2672 9.27067 37.9338 9.70533 38.6338 10.404C39.3338 11.104 39.7672 11.7707 40.1285 12.704C40.4032 13.4093 40.7285 14.468 40.8178 16.4173C40.9138 18.5267 40.9338 19.16 40.9338 24.5C40.9338 29.84 40.9138 30.4733 40.8178 32.5827C40.7285 34.532 40.4045 35.5907 40.1285 36.296C39.8084 37.1647 39.2977 37.9507 38.6338 38.596C37.9886 39.26 37.2027 39.7707 36.3338 40.0907C35.6285 40.3653 34.5698 40.6907 32.6205 40.78C30.5112 40.876 29.8792 40.896 24.5378 40.896C19.1965 40.896 18.5645 40.876 16.4552 40.78C14.5058 40.6907 13.4472 40.3667 12.7418 40.0907C11.8731 39.7706 11.0872 39.2598 10.4418 38.596C9.77808 37.9506 9.26735 37.1647 8.94718 36.296C8.67251 35.5907 8.34718 34.532 8.25784 32.5827C8.16184 30.4733 8.14184 29.84 8.14184 24.5C8.14184 19.16 8.16184 18.5267 8.25784 16.4173C8.34718 14.468 8.67118 13.4093 8.94718 12.704C9.30851 11.7707 9.74318 11.104 10.4418 10.404C11.0871 9.74006 11.8731 9.2293 12.7418 8.90933C13.4472 8.63467 14.5058 8.30933 16.4552 8.22C18.5645 8.124 19.1978 8.104 24.5378 8.104Z" fill="white"/>
<path fill-rule="evenodd" clip-rule="evenodd" d="M24.5379 31.1733C23.6615 31.1733 22.7937 31.0007 21.9841 30.6654C21.1745 30.33 20.4388 29.8384 19.8191 29.2188C19.1994 28.5991 18.7079 27.8634 18.3725 27.0538C18.0372 26.2441 17.8645 25.3764 17.8645 24.5C17.8645 23.6236 18.0372 22.7559 18.3725 21.9462C18.7079 21.1366 19.1994 20.4009 19.8191 19.7812C20.4388 19.1616 21.1745 18.67 21.9841 18.3346C22.7937 17.9993 23.6615 17.8267 24.5379 17.8267C26.3078 17.8267 28.0051 18.5297 29.2566 19.7812C30.5081 21.0327 31.2112 22.7301 31.2112 24.5C31.2112 26.2699 30.5081 27.9673 29.2566 29.2188C28.0051 30.4703 26.3078 31.1733 24.5379 31.1733ZM24.5379 14.22C21.8114 14.22 19.1967 15.3031 17.2688 17.2309C15.3409 19.1588 14.2579 21.7736 14.2579 24.5C14.2579 27.2264 15.3409 29.8412 17.2688 31.7691C19.1967 33.6969 21.8114 34.78 24.5379 34.78C27.2643 34.78 29.8791 33.6969 31.8069 31.7691C33.7348 29.8412 34.8179 27.2264 34.8179 24.5C34.8179 21.7736 33.7348 19.1588 31.8069 17.2309C29.8791 15.3031 27.2643 14.22 24.5379 14.22ZM37.8085 14.0333C37.8085 14.6778 37.5525 15.2959 37.0968 15.7516C36.6411 16.2073 36.023 16.4633 35.3785 16.4633C34.7341 16.4633 34.116 16.2073 33.6603 15.7516C33.2046 15.2959 32.9485 14.6778 32.9485 14.0333C32.9485 13.3889 33.2046 12.7708 33.6603 12.3151C34.116 11.8594 34.7341 11.6033 35.3785 11.6033C36.023 11.6033 36.6411 11.8594 37.0968 12.3151C37.5525 12.7708 37.8085 13.3889 37.8085 14.0333Z" fill="white"/>
</svg>
