<svg width="48" height="48" viewBox="0 0 48 48" fill="none" xmlns="http://www.w3.org/2000/svg">
<path d="M44 6.94118V41.0588C44 41.8389 43.6901 42.587 43.1386 43.1386C42.587 43.6901 41.8389 44 41.0588 44H6.94118C6.16113 44 5.41303 43.6901 4.86145 43.1386C4.30987 42.587 4 41.8389 4 41.0588V6.94118C4 6.16113 4.30987 5.41303 4.86145 4.86145C5.41303 4.30987 6.16113 4 6.94118 4H41.0588C41.8389 4 42.587 4.30987 43.1386 4.86145C43.6901 5.41303 44 6.16113 44 6.94118ZM15.7647 19.2941H9.88235V38.1176H15.7647V19.2941ZM16.2941 12.8235C16.2972 12.3786 16.2126 11.9374 16.0452 11.5251C15.8778 11.1128 15.6308 10.7376 15.3184 10.4208C15.0059 10.104 14.6342 9.85179 14.2243 9.67866C13.8144 9.50554 13.3744 9.41484 12.9294 9.41176H12.8235C11.9187 9.41176 11.0509 9.77122 10.411 10.411C9.77122 11.0509 9.41176 11.9187 9.41176 12.8235C9.41176 13.7284 9.77122 14.5962 10.411 15.236C11.0509 15.8758 11.9187 16.2353 12.8235 16.2353C13.2685 16.2462 13.7113 16.1694 14.1266 16.0092C14.5418 15.8489 14.9215 15.6084 15.2438 15.3014C15.5661 14.9944 15.8247 14.6269 16.005 14.2199C16.1852 13.8129 16.2834 13.3744 16.2941 12.9294V12.8235ZM38.1176 26.6824C38.1176 21.0235 34.5176 18.8235 30.9412 18.8235C29.7702 18.7649 28.6042 19.0143 27.5597 19.5469C26.5152 20.0795 25.6285 20.8766 24.9882 21.8588H24.8235V19.2941H19.2941V38.1176H25.1765V28.1059C25.0914 27.0805 25.4144 26.063 26.0753 25.2744C26.7361 24.4858 27.6814 23.9898 28.7059 23.8941H28.9294C30.8 23.8941 32.1882 25.0706 32.1882 28.0353V38.1176H38.0706L38.1176 26.6824Z" fill="#0B0A0A"/>
</svg>
