<svg width="603" height="264" viewBox="0 0 603 264" fill="none" xmlns="http://www.w3.org/2000/svg">
<path d="M270.319 31.4484C251.128 15.1267 227.667 4.63768 202.707 1.22016C177.747 -2.19737 152.33 1.59934 129.458 12.1619C106.586 22.7244 87.2144 39.6116 73.631 60.8291C60.0476 82.0466 52.8196 106.708 52.8007 131.901C52.7819 157.094 59.9729 181.767 73.5245 203.004C87.0762 224.242 106.422 241.158 129.279 251.755C152.135 262.352 177.546 266.187 202.511 262.807C227.476 259.426 250.953 248.973 270.168 232.68L241.719 199.127C228.907 209.99 213.254 216.96 196.609 219.214C179.964 221.467 163.021 218.911 147.782 211.845C132.543 204.78 119.644 193.501 110.609 179.341C101.573 165.181 96.7787 148.731 96.7913 131.934C96.8039 115.137 101.623 98.6941 110.68 84.5476C119.736 70.4011 132.652 59.1418 147.902 52.0993C163.151 45.0569 180.098 42.5255 196.739 44.8041C213.381 47.0827 229.024 54.0761 241.819 64.9584L270.319 31.4484Z" fill="#065BD0"/>
<circle cx="168.511" cy="132.562" r="28.0851" fill="#65A492"/>
<rect x="1.12361" y="121.328" width="170.757" height="21.3447" fill="#65A492"/>
<rect x="1.12361" y="55.0469" width="19.0979" height="87.6255" fill="#65A492"/>
<circle cx="10.6724" cy="33.1406" r="10.6723" fill="#65A492"/>
<path d="M291.671 176.96C286.295 176.96 281.751 176.096 278.039 174.368C274.391 172.64 271.575 170.176 269.591 166.976C267.671 163.712 266.583 159.84 266.327 155.36C266.263 154.08 266.231 152.64 266.231 151.04C266.231 149.376 266.263 147.936 266.327 146.72C266.583 142.176 267.735 138.304 269.783 135.104C271.831 131.904 274.679 129.44 278.327 127.712C282.039 125.984 286.487 125.12 291.671 125.12C296.919 125.12 301.367 125.984 305.015 127.712C308.727 129.44 311.607 131.904 313.655 135.104C315.703 138.304 316.855 142.176 317.111 146.72C317.175 147.936 317.207 149.376 317.207 151.04C317.207 152.64 317.175 154.08 317.111 155.36C316.855 159.84 315.735 163.712 313.751 166.976C311.831 170.176 309.015 172.64 305.303 174.368C301.655 176.096 297.111 176.96 291.671 176.96ZM291.671 165.248C294.551 165.248 296.631 164.384 297.911 162.656C299.255 160.928 300.023 158.336 300.215 154.88C300.279 153.92 300.311 152.64 300.311 151.04C300.311 149.44 300.279 148.16 300.215 147.2C300.023 143.808 299.255 141.248 297.911 139.52C296.631 137.728 294.551 136.832 291.671 136.832C288.855 136.832 286.775 137.728 285.431 139.52C284.087 141.248 283.351 143.808 283.223 147.2C283.159 148.16 283.127 149.44 283.127 151.04C283.127 152.64 283.159 153.92 283.223 154.88C283.351 158.336 284.087 160.928 285.431 162.656C286.775 164.384 288.855 165.248 291.671 165.248ZM329.048 176C328.344 176 327.768 175.776 327.32 175.328C326.872 174.88 326.648 174.304 326.648 173.6V128.48C326.648 127.776 326.872 127.2 327.32 126.752C327.768 126.304 328.344 126.08 329.048 126.08H340.088C340.792 126.08 341.368 126.304 341.816 126.752C342.264 127.2 342.488 127.776 342.488 128.48V132.128C344.152 130.144 346.328 128.48 349.016 127.136C351.704 125.792 354.872 125.12 358.52 125.12C362.232 125.12 365.496 125.952 368.312 127.616C371.192 129.28 373.432 131.744 375.032 135.008C376.696 138.208 377.528 142.144 377.528 146.816V173.6C377.528 174.304 377.272 174.88 376.76 175.328C376.312 175.776 375.768 176 375.128 176H363.032C362.392 176 361.816 175.776 361.304 175.328C360.856 174.88 360.632 174.304 360.632 173.6V147.392C360.632 144.384 359.896 142.08 358.424 140.48C357.016 138.816 354.904 137.984 352.088 137.984C349.464 137.984 347.352 138.816 345.752 140.48C344.216 142.08 343.448 144.384 343.448 147.392V173.6C343.448 174.304 343.192 174.88 342.68 175.328C342.232 175.776 341.688 176 341.048 176H329.048ZM390.642 176C389.938 176 389.362 175.776 388.914 175.328C388.466 174.88 388.242 174.304 388.242 173.6V128.48C388.242 127.776 388.466 127.2 388.914 126.752C389.362 126.304 389.938 126.08 390.642 126.08H401.682C402.386 126.08 402.962 126.304 403.41 126.752C403.858 127.2 404.082 127.776 404.082 128.48V132.128C405.746 130.144 407.922 128.48 410.61 127.136C413.298 125.792 416.466 125.12 420.114 125.12C423.826 125.12 427.09 125.952 429.906 127.616C432.786 129.28 435.026 131.744 436.626 135.008C438.29 138.208 439.122 142.144 439.122 146.816V173.6C439.122 174.304 438.866 174.88 438.354 175.328C437.906 175.776 437.362 176 436.722 176H424.626C423.986 176 423.41 175.776 422.898 175.328C422.45 174.88 422.226 174.304 422.226 173.6V147.392C422.226 144.384 421.49 142.08 420.018 140.48C418.61 138.816 416.498 137.984 413.682 137.984C411.058 137.984 408.946 138.816 407.346 140.48C405.81 142.08 405.042 144.384 405.042 147.392V173.6C405.042 174.304 404.786 174.88 404.274 175.328C403.826 175.776 403.282 176 402.642 176H390.642ZM472.876 176.96C465.324 176.96 459.308 174.912 454.828 170.816C450.348 166.72 448.012 160.64 447.82 152.576C447.82 152.128 447.82 151.552 447.82 150.848C447.82 150.144 447.82 149.6 447.82 149.216C448.012 144.16 449.132 139.84 451.18 136.256C453.292 132.608 456.172 129.856 459.82 128C463.532 126.08 467.852 125.12 472.78 125.12C478.412 125.12 483.052 126.24 486.7 128.48C490.412 130.72 493.196 133.76 495.052 137.6C496.908 141.44 497.836 145.824 497.836 150.752V153.056C497.836 153.76 497.58 154.336 497.068 154.784C496.62 155.232 496.076 155.456 495.436 155.456H464.716C464.716 155.52 464.716 155.616 464.716 155.744C464.716 155.872 464.716 156 464.716 156.128C464.78 157.984 465.1 159.68 465.676 161.216C466.252 162.752 467.148 163.968 468.364 164.864C469.58 165.76 471.052 166.208 472.78 166.208C474.06 166.208 475.116 166.016 475.948 165.632C476.844 165.184 477.58 164.704 478.156 164.192C478.732 163.616 479.18 163.136 479.5 162.752C480.076 162.112 480.524 161.728 480.844 161.6C481.228 161.408 481.804 161.312 482.572 161.312H494.476C495.116 161.312 495.628 161.504 496.012 161.888C496.46 162.208 496.652 162.688 496.588 163.328C496.524 164.416 495.98 165.728 494.956 167.264C493.932 168.8 492.428 170.336 490.444 171.872C488.524 173.344 486.092 174.56 483.148 175.52C480.204 176.48 476.78 176.96 472.876 176.96ZM464.716 145.952H480.94V145.76C480.94 143.712 480.62 141.92 479.98 140.384C479.404 138.848 478.476 137.664 477.196 136.832C475.98 136 474.508 135.584 472.78 135.584C471.052 135.584 469.58 136 468.364 136.832C467.212 137.664 466.316 138.848 465.676 140.384C465.036 141.92 464.716 143.712 464.716 145.76V145.952ZM529.78 176.96C525.044 176.96 520.852 176.096 517.204 174.368C513.556 172.64 510.644 170.144 508.468 166.88C506.356 163.552 505.204 159.584 505.012 154.976C504.948 153.952 504.916 152.672 504.916 151.136C504.916 149.536 504.948 148.224 505.012 147.2C505.204 142.528 506.356 138.56 508.468 135.296C510.58 131.968 513.46 129.44 517.108 127.712C520.82 125.984 525.044 125.12 529.78 125.12C534.196 125.12 537.972 125.76 541.108 127.04C544.244 128.256 546.804 129.792 548.788 131.648C550.772 133.504 552.244 135.424 553.204 137.408C554.228 139.328 554.772 141.024 554.836 142.496C554.9 143.136 554.676 143.712 554.164 144.224C553.652 144.672 553.076 144.896 552.436 144.896H540.244C539.54 144.896 538.996 144.736 538.612 144.416C538.228 144.096 537.876 143.616 537.556 142.976C536.788 140.992 535.796 139.584 534.58 138.752C533.428 137.92 531.924 137.504 530.068 137.504C527.508 137.504 525.524 138.336 524.116 140C522.772 141.664 522.036 144.224 521.908 147.68C521.844 150.24 521.844 152.512 521.908 154.496C522.036 158.016 522.772 160.576 524.116 162.176C525.524 163.776 527.508 164.576 530.068 164.576C532.052 164.576 533.62 164.16 534.772 163.328C535.924 162.496 536.852 161.088 537.556 159.104C537.876 158.464 538.228 157.984 538.612 157.664C538.996 157.344 539.54 157.184 540.244 157.184H552.436C553.076 157.184 553.652 157.44 554.164 157.952C554.676 158.4 554.9 158.944 554.836 159.584C554.772 160.672 554.452 161.952 553.876 163.424C553.3 164.832 552.404 166.336 551.188 167.936C549.972 169.536 548.372 171.04 546.388 172.448C544.468 173.792 542.132 174.88 539.38 175.712C536.628 176.544 533.428 176.96 529.78 176.96ZM588.997 176C584.901 176 581.349 175.36 578.341 174.08C575.397 172.736 573.125 170.688 571.525 167.936C569.925 165.12 569.125 161.504 569.125 157.088V138.656H561.637C560.933 138.656 560.325 138.432 559.813 137.984C559.365 137.536 559.141 136.96 559.141 136.256V128.48C559.141 127.776 559.365 127.2 559.813 126.752C560.325 126.304 560.933 126.08 561.637 126.08H569.125V110.24C569.125 109.536 569.349 108.96 569.797 108.512C570.309 108.064 570.885 107.84 571.525 107.84H582.661C583.365 107.84 583.941 108.064 584.389 108.512C584.837 108.96 585.061 109.536 585.061 110.24V126.08H597.061C597.765 126.08 598.341 126.304 598.789 126.752C599.237 127.2 599.461 127.776 599.461 128.48V136.256C599.461 136.96 599.237 137.536 598.789 137.984C598.341 138.432 597.765 138.656 597.061 138.656H585.061V155.744C585.061 157.92 585.477 159.648 586.309 160.928C587.141 162.208 588.549 162.848 590.533 162.848H597.925C598.629 162.848 599.205 163.072 599.653 163.52C600.101 163.968 600.325 164.544 600.325 165.248V173.6C600.325 174.304 600.101 174.88 599.653 175.328C599.205 175.776 598.629 176 597.925 176H588.997Z" fill="#065BD0"/>
<path d="M266.763 103C266.411 103 266.123 102.888 265.899 102.664C265.675 102.44 265.563 102.152 265.563 101.8V70.6C265.563 70.248 265.675 69.96 265.899 69.736C266.123 69.512 266.411 69.4 266.763 69.4H273.195C273.547 69.4 273.835 69.512 274.059 69.736C274.283 69.96 274.395 70.248 274.395 70.6V101.8C274.395 102.152 274.283 102.44 274.059 102.664C273.835 102.888 273.547 103 273.195 103H266.763ZM289.718 103C289.366 103 289.078 102.888 288.854 102.664C288.63 102.44 288.518 102.152 288.518 101.8V76.936H279.974C279.622 76.936 279.334 76.824 279.11 76.6C278.886 76.344 278.774 76.056 278.774 75.736V70.6C278.774 70.248 278.886 69.96 279.11 69.736C279.334 69.512 279.622 69.4 279.974 69.4H305.798C306.15 69.4 306.438 69.512 306.662 69.736C306.886 69.96 306.998 70.248 306.998 70.6V75.736C306.998 76.056 306.886 76.344 306.662 76.6C306.438 76.824 306.15 76.936 305.798 76.936H297.254V101.8C297.254 102.152 297.142 102.44 296.918 102.664C296.694 102.888 296.406 103 296.054 103H289.718ZM312.56 103C312.208 103 311.92 102.888 311.696 102.664C311.472 102.44 311.36 102.152 311.36 101.8V70.6C311.36 70.248 311.472 69.96 311.696 69.736C311.92 69.512 312.208 69.4 312.56 69.4H327.2C329.952 69.4 332.208 69.784 333.968 70.552C335.728 71.32 337.024 72.424 337.856 73.864C338.72 75.272 339.152 76.952 339.152 78.904C339.152 80.056 338.928 81.08 338.48 81.976C338.064 82.84 337.536 83.56 336.896 84.136C336.288 84.712 335.712 85.128 335.168 85.384C336.384 85.96 337.456 86.904 338.384 88.216C339.344 89.528 339.824 91.064 339.824 92.824C339.824 94.936 339.344 96.76 338.384 98.296C337.456 99.8 336.08 100.968 334.256 101.8C332.464 102.6 330.256 103 327.632 103H312.56ZM319.952 96.76H326.672C328.048 96.76 329.088 96.36 329.792 95.56C330.496 94.76 330.848 93.848 330.848 92.824C330.848 91.704 330.48 90.76 329.744 89.992C329.04 89.224 328.016 88.84 326.672 88.84H319.952V96.76ZM319.952 82.744H326.24C327.552 82.744 328.528 82.408 329.168 81.736C329.84 81.064 330.176 80.2 330.176 79.144C330.176 78.12 329.84 77.288 329.168 76.648C328.528 75.976 327.552 75.64 326.24 75.64H319.952V82.744Z" fill="#65A492"/>
</svg>
