<svg width="49" height="49" viewBox="0 0 49 49" fill="none" xmlns="http://www.w3.org/2000/svg">
<path d="M44.5378 12.3492C43.0669 13.001 41.4867 13.4414 39.8254 13.6405C41.5201 12.6258 42.8202 11.0156 43.4333 9.09896C41.8478 10.0397 40.0914 10.7232 38.2223 11.0896C36.7249 9.49709 34.5933 8.5 32.2327 8.5C27.7018 8.5 24.027 12.1748 24.027 16.7093C24.027 17.3505 24.101 17.9741 24.2384 18.5766C17.4155 18.2331 11.3713 14.9653 7.32301 10.0009C6.61835 11.2165 6.21317 12.6258 6.21317 14.1267C6.21317 16.9735 7.66301 19.4874 9.86331 20.9584C8.51741 20.9143 7.25254 20.5462 6.14623 19.9313V20.037C6.14623 24.0131 8.97367 27.3303 12.7295 28.0843C12.0389 28.271 11.3149 28.3696 10.568 28.3696C10.0395 28.3696 9.52331 28.3203 9.023 28.2252C10.0677 31.4842 13.0977 33.8589 16.6897 33.9224C13.8799 36.1244 10.3407 37.4368 6.4968 37.4368C5.83442 37.4368 5.18084 37.3981 4.53784 37.3223C8.17036 39.653 12.4829 41.0095 17.116 41.0095C32.2133 41.0095 40.4667 28.5053 40.4667 17.6606C40.4667 17.3082 40.4579 16.9524 40.442 16.6001C42.0451 15.4409 43.4368 13.9981 44.5343 12.3545L44.5378 12.3492Z" fill="white"/>
</svg>
