<svg width="49" height="49" viewBox="0 0 49 49" fill="none" xmlns="http://www.w3.org/2000/svg">
<path fill-rule="evenodd" clip-rule="evenodd" d="M41.7277 9.41999C43.622 9.92707 45.1108 11.4157 45.6178 13.31C46.5341 16.74 46.5378 23.9007 46.5378 23.9007C46.5378 23.9007 46.5378 31.0614 45.6178 34.4915C45.1108 36.3858 43.622 37.8744 41.7277 38.3814C38.2978 39.3014 24.5378 39.3014 24.5378 39.3014C24.5378 39.3014 10.7779 39.3014 7.34784 38.3814C5.45355 37.8744 3.96491 36.3858 3.45783 34.4915C2.53784 31.0614 2.53784 23.9007 2.53784 23.9007C2.53784 23.9007 2.53784 16.74 3.45783 13.31C3.96491 11.4157 5.45355 9.92707 7.34784 9.41999C10.7779 8.5 24.5378 8.5 24.5378 8.5C24.5378 8.5 38.2978 8.5 41.7277 9.41999ZM31.5646 23.9013L20.1336 30.5005V17.302L31.5646 23.9013Z" fill="white"/>
</svg>
